# xmcd
#
# Track frame offsets:
# 150
# 18631
# 39245
# 63110
# 97295
#
# Disc length: 1795 seconds
#
#
# Revision: 0
# Processed by: cddbd v1.5.1PL0 Copyright (c) Steve Scherf et al.
# Submitted via: FreeRIP 2.942 
#
DISCID=3a070105
DTITLE=Gravediggaz - The Night The Earth Cried 
DYEAR=1997
DGENRE=Hip-Hop
TTITLE0=The Night The Earth Cried (Radio Edit)
TTITLE1=The Night The Earth Cried (Album Mix)
TTITLE2=The Night The Earth Cried (Ultimatum Remix)
TTITLE3=The Night The Earth Cried (Diamond J Remix)
TTITLE4=The Night The Earth Cried Video
EXTD=The Pick, The Sickle and The Shovel
EXTT0=
EXTT1=
EXTT2=
EXTT3=
EXTT4=
PLAYORDER=
